<svg xmlns="http://www.w3.org/2000/svg" viewBox="0 0 160 60">
  <!-- Sun -->
  <g transform="translate(10, 10)">
    <!-- Sun Circle -->
    <circle cx="20" cy="20" r="12" fill="#FFEB3B" stroke="#FBC02D" stroke-width="2"/>
    
    <!-- Sun Rays -->
    <line x1="20" y1="2" x2="20" y2="8" stroke="#FFEB3B" stroke-width="2" stroke-linecap="round"/>
    <line x1="20" y1="32" x2="20" y2="38" stroke="#FFEB3B" stroke-width="2" stroke-linecap="round"/>
    <line x1="2" y1="20" x2="8" y2="20" stroke="#FFEB3B" stroke-width="2" stroke-linecap="round"/>
    <line x1="32" y1="20" x2="38" y2="20" stroke="#FFEB3B" stroke-width="2" stroke-linecap="round"/>
    
    <line x1="6" y1="6" x2="11" y2="11" stroke="#FFEB3B" stroke-width="2" stroke-linecap="round"/>
    <line x1="29" y1="29" x2="34" y2="34" stroke="#FFEB3B" stroke-width="2" stroke-linecap="round"/>
    <line x1="6" y1="34" x2="11" y2="29" stroke="#FFEB3B" stroke-width="2" stroke-linecap="round"/>
    <line x1="29" y1="11" x2="34" y2="6" stroke="#FFEB3B" stroke-width="2" stroke-linecap="round"/>
  </g>

  <!-- Cloud -->
  <g transform="translate(70, 10)">
    <!-- Cloud Shape -->
    <ellipse cx="15" cy="25" rx="12" ry="8" fill="#ECEFF1" stroke="#B0BEC5" stroke-width="2"/>
    <ellipse cx="25" cy="20" rx="10" ry="10" fill="#ECEFF1" stroke="#B0BEC5" stroke-width="2"/>
    <ellipse cx="35" cy="25" rx="12" ry="8" fill="#ECEFF1" stroke="#B0BEC5" stroke-width="2"/>
    <rect x="15" y="20" width="20" height="10" fill="#ECEFF1"/>
  </g>

  <!-- Rain -->
  <g transform="translate(130, 10)">
    <!-- Small Cloud -->
    <ellipse cx="10" cy="15" rx="8" ry="5" fill="#ECEFF1" stroke="#B0BEC5" stroke-width="1"/>
    <ellipse cx="17" cy="12" rx="7" ry="7" fill="#ECEFF1" stroke="#B0BEC5" stroke-width="1"/>
    <ellipse cx="24" cy="15" rx="8" ry="5" fill="#ECEFF1" stroke="#B0BEC5" stroke-width="1"/>
    <rect x="10" y="12" width="14" height="5" fill="#ECEFF1"/>
    
    <!-- Raindrops -->
    <path d="M10,20 L8,30" stroke="#4FC3F7" stroke-width="2" stroke-linecap="round"/>
    <path d="M17,20 L15,30" stroke="#4FC3F7" stroke-width="2" stroke-linecap="round"/>
    <path d="M24,20 L22,30" stroke="#4FC3F7" stroke-width="2" stroke-linecap="round"/>
    <path d="M14,24 L12,34" stroke="#4FC3F7" stroke-width="2" stroke-linecap="round"/>
    <path d="M21,24 L19,34" stroke="#4FC3F7" stroke-width="2" stroke-linecap="round"/>
  </g>
</svg>
