<svg xmlns="http://www.w3.org/2000/svg" viewBox="0 0 120 60">
  <!-- Harvested Tomato -->
  <g transform="translate(10, 10)">
    <!-- Tomato -->
    <circle cx="20" cy="25" r="15" fill="#E53935" stroke="#B71C1C" stroke-width="2"/>
    <!-- Stem/Leaf -->
    <rect x="19" y="10" width="2" height="5" fill="#558B2F"/>
    <path d="M21,10 Q28,5 21,0" fill="#7CB342" stroke="#33691E" stroke-width="1"/>
    <path d="M19,10 Q12,5 19,0" fill="#7CB342" stroke="#33691E" stroke-width="1"/>
    <!-- Highlight -->
    <circle cx="15" cy="20" r="4" fill="#FFCDD2" opacity="0.5"/>
  </g>

  <!-- Harvested Carrot -->
  <g transform="translate(70, 10)">
    <!-- Carrot Body -->
    <path d="M20,10 L12,40 L28,40 Z" fill="#FB8C00" stroke="#E65100" stroke-width="2"/>
    <!-- Carrot Greens -->
    <path d="M10,10 Q15,0 20,10" fill="#66BB6A" stroke="#2E7D32" stroke-width="1"/>
    <path d="M15,10 Q20,0 25,10" fill="#66BB6A" stroke="#2E7D32" stroke-width="1"/>
    <path d="M20,10 Q25,0 30,10" fill="#66BB6A" stroke="#2E7D32" stroke-width="1"/>
    <!-- Carrot Details -->
    <path d="M16,15 L24,15" stroke="#E65100" stroke-width="1"/>
    <path d="M15,20 L25,20" stroke="#E65100" stroke-width="1"/>
    <path d="M14,25 L26,25" stroke="#E65100" stroke-width="1"/>
    <path d="M13,30 L27,30" stroke="#E65100" stroke-width="1"/>
    <path d="M12,35 L28,35" stroke="#E65100" stroke-width="1"/>
  </g>
</svg>
