<svg xmlns="http://www.w3.org/2000/svg" viewBox="0 0 240 60">
  <!-- Seed Stage -->
  <g transform="translate(10, 10)">
    <!-- Soil -->
    <rect x="0" y="25" width="40" height="15" fill="#8D6E63"/>
    <rect x="0" y="25" width="40" height="3" fill="#5D4037"/>
    <rect x="0" y="31" width="40" height="3" fill="#5D4037" opacity="0.5"/>
    <rect x="0" y="37" width="40" height="3" fill="#5D4037" opacity="0.3"/>
    <!-- Seed -->
    <ellipse cx="20" cy="28" rx="4" ry="2" fill="#F5F5F5"/>
    <rect x="19" y="25" width="2" height="1" fill="#33691E"/>
  </g>

  <!-- Sprout Stage -->
  <g transform="translate(70, 10)">
    <!-- Soil -->
    <rect x="0" y="25" width="40" height="15" fill="#8D6E63"/>
    <rect x="0" y="25" width="40" height="3" fill="#5D4037"/>
    <rect x="0" y="31" width="40" height="3" fill="#5D4037" opacity="0.5"/>
    <rect x="0" y="37" width="40" height="3" fill="#5D4037" opacity="0.3"/>
    <!-- Stem -->
    <rect x="19" y="18" width="2" height="10" fill="#33691E"/>
    <!-- Leaves -->
    <path d="M14,20 L19,18 L24,20 L19,22 Z" fill="#33691E" stroke="#1B5E20" stroke-width="1"/>
    <path d="M19,18 L17,13 L21,13 Z" fill="#33691E" stroke="#1B5E20" stroke-width="1"/>
  </g>

  <!-- Growing Stage -->
  <g transform="translate(130, 10)">
    <!-- Soil -->
    <rect x="0" y="25" width="40" height="15" fill="#8D6E63"/>
    <rect x="0" y="25" width="40" height="3" fill="#5D4037"/>
    <rect x="0" y="31" width="40" height="3" fill="#5D4037" opacity="0.5"/>
    <rect x="0" y="37" width="40" height="3" fill="#5D4037" opacity="0.3"/>
    <!-- Vine -->
    <path d="M20,25 C15,20 10,25 5,20" stroke="#33691E" stroke-width="2" fill="none"/>
    <path d="M20,25 C25,20 30,25 35,20" stroke="#33691E" stroke-width="2" fill="none"/>
    <!-- Leaves -->
    <path d="M5,20 L10,15 L15,20 L10,25 Z" fill="#33691E" stroke="#1B5E20" stroke-width="1"/>
    <path d="M35,20 L30,15 L25,20 L30,25 Z" fill="#33691E" stroke="#1B5E20" stroke-width="1"/>
    <path d="M20,15 L17,10 L23,10 Z" fill="#33691E" stroke="#1B5E20" stroke-width="1"/>
    <!-- Small Pumpkin -->
    <circle cx="20" cy="28" r="3" fill="#FFA000" stroke="#E65100" stroke-width="1"/>
  </g>

  <!-- Mature Stage -->
  <g transform="translate(190, 10)">
    <!-- Soil -->
    <rect x="0" y="25" width="40" height="15" fill="#8D6E63"/>
    <rect x="0" y="25" width="40" height="3" fill="#5D4037"/>
    <rect x="0" y="31" width="40" height="3" fill="#5D4037" opacity="0.5"/>
    <rect x="0" y="37" width="40" height="3" fill="#5D4037" opacity="0.3"/>
    <!-- Vine -->
    <path d="M20,20 C10,15 5,25 0,20" stroke="#33691E" stroke-width="2" fill="none"/>
    <path d="M20,20 C30,15 35,25 40,20" stroke="#33691E" stroke-width="2" fill="none"/>
    <!-- Leaves -->
    <path d="M0,20 L5,15 L10,20 L5,25 Z" fill="#33691E" stroke="#1B5E20" stroke-width="1"/>
    <path d="M40,20 L35,15 L30,20 L35,25 Z" fill="#33691E" stroke="#1B5E20" stroke-width="1"/>
    <path d="M15,15 L20,10 L25,15 L20,20 Z" fill="#33691E" stroke="#1B5E20" stroke-width="1"/>
    <!-- Pumpkin -->
    <ellipse cx="20" cy="30" rx="10" ry="8" fill="#FF6F00" stroke="#E65100" stroke-width="2"/>
    <!-- Pumpkin Ridges -->
    <path d="M12,27 L28,27" stroke="#E65100" stroke-width="1"/>
    <path d="M13,30 L27,30" stroke="#E65100" stroke-width="1"/>
    <path d="M14,33 L26,33" stroke="#E65100" stroke-width="1"/>
    <!-- Stem -->
    <rect x="19" y="22" width="2" height="2" fill="#33691E"/>
  </g>
</svg>
